<svg width="128" height="160" xmlns="http://www.w3.org/2000/svg">

 <g>
  <title>background</title>
  <rect fill="none" id="canvas_background" height="402" width="582" y="-1" x="-1"/>
 </g>
 <g>
  <title>Layer 1</title>
  <path id="svg_2" d="m128,105.7l-12.7,-14l0,8.4l-11.6,0c-4.2,4.3 -9.4,8.6 -15.2,11.2l26.8,0l0,8.4l12.7,-14z"/>
  <path id="svg_3" d="m110.5,70.1c0,-22.8 -18.5,-41.2 -41.3,-41.2c-12.9,0 -24.3,5.9 -31.9,15.1c0,0 0,0 0,0c-2.6,3.3 -4.8,6.9 -6.3,10.6c-0.1,0.3 -0.2,0.5 -0.3,0.8c-0.2,0.6 -0.4,1.1 -0.6,1.7c-1.4,4.1 -2.1,8.5 -2.1,13.1c0,5.1 1,10 2.7,14.6l-7.7,3.3l18.4,7.3l7.2,-18.4l-7.4,3.2c-1.2,-3.2 -1.8,-6.6 -1.8,-10c0,-16.4 13.4,-29.7 29.8,-29.7c16.4,0 29.8,13.4 29.8,29.8c0,16.4 -13.4,29.8 -29.8,29.8l-69.2,0l5.4,5.4l-5.4,5.8l69.2,0c22.7,0 41.3,-18.4 41.3,-41.2z"/>
  <path id="svg_4" d="m27.4,51.9c0.3,0.2 0.6,0.4 0.8,0.6c1.5,-3.5 3.5,-6.8 5.9,-9.9c-0.3,-0.2 -0.5,-0.4 -0.8,-0.6c-1.8,-1.7 -3,-4.1 -3,-6.8c0,-5.1 4.2,-9.3 9.3,-9.3c0.8,0 1.6,0.1 2.3,0.3l-3.6,7.2l7.9,-2.7l10.9,-3.7l-0.3,-0.8l-6.1,-18l-3.7,7.5c-2.4,-0.9 -4.9,-1.4 -7.4,-1.4c-11.5,0 -20.8,9.3 -20.8,20.8c0.1,6.9 3.5,13 8.6,16.8z"/>
 </g>
</svg>